<mxfile host="app.diagrams.net" modified="2024-03-18T10:33:33.029Z" agent="Mozilla/5.0 (Windows NT 10.0; Win64; x64) AppleWebKit/537.36 (KHTML, like Gecko) Chrome/122.0.0.0 Safari/537.36" etag="zDge_ZOt1bJeV51bxxgk" version="24.0.7" type="device">
  <diagram id="C5RBs43oDa-KdzZeNtuy" name="Page-1">
    <mxGraphModel dx="1395" dy="622" grid="1" gridSize="10" guides="1" tooltips="1" connect="1" arrows="1" fold="1" page="1" pageScale="1" pageWidth="827" pageHeight="1169" math="0" shadow="0">
      <root>
        <mxCell id="WIyWlLk6GJQsqaUBKTNV-0" />
        <mxCell id="WIyWlLk6GJQsqaUBKTNV-1" parent="WIyWlLk6GJQsqaUBKTNV-0" />
        <mxCell id="mBfjgzDznsE84XW__5Sw-0" value="" style="group" parent="WIyWlLk6GJQsqaUBKTNV-1" vertex="1" connectable="0">
          <mxGeometry x="595" y="550" width="150" height="200" as="geometry" />
        </mxCell>
        <mxCell id="mBfjgzDznsE84XW__5Sw-1" value="" style="ellipse;whiteSpace=wrap;html=1;" parent="mBfjgzDznsE84XW__5Sw-0" vertex="1">
          <mxGeometry width="150" height="199.99999999999997" as="geometry" />
        </mxCell>
        <mxCell id="mBfjgzDznsE84XW__5Sw-2" value="" style="endArrow=none;html=1;rounded=0;exitX=0.017;exitY=0.325;exitDx=0;exitDy=0;exitPerimeter=0;entryX=0.983;entryY=0.333;entryDx=0;entryDy=0;entryPerimeter=0;" parent="mBfjgzDznsE84XW__5Sw-0" source="mBfjgzDznsE84XW__5Sw-1" target="mBfjgzDznsE84XW__5Sw-1" edge="1">
          <mxGeometry width="50" height="50" relative="1" as="geometry">
            <mxPoint x="37.5" y="105.88235294117646" as="sourcePoint" />
            <mxPoint x="91.07142857142857" y="47.058823529411754" as="targetPoint" />
          </mxGeometry>
        </mxCell>
        <mxCell id="mBfjgzDznsE84XW__5Sw-3" value="&lt;b&gt;Encryption Service&lt;/b&gt;" style="text;html=1;align=center;verticalAlign=middle;whiteSpace=wrap;rounded=0;" parent="mBfjgzDznsE84XW__5Sw-0" vertex="1">
          <mxGeometry x="42.857142857142854" y="23.529411764705877" width="64.28571428571428" height="35.29411764705881" as="geometry" />
        </mxCell>
        <mxCell id="mBfjgzDznsE84XW__5Sw-4" value="encrypt" style="text;strokeColor=none;fillColor=none;align=left;verticalAlign=middle;spacingLeft=4;spacingRight=4;overflow=hidden;points=[[0,0.5],[1,0.5]];portConstraint=eastwest;rotatable=0;whiteSpace=wrap;html=1;" parent="mBfjgzDznsE84XW__5Sw-0" vertex="1">
          <mxGeometry x="46.43" y="70" width="57.14" height="35.29" as="geometry" />
        </mxCell>
        <mxCell id="mBfjgzDznsE84XW__5Sw-5" value="decrypt" style="text;strokeColor=none;fillColor=none;align=left;verticalAlign=middle;spacingLeft=4;spacingRight=4;overflow=hidden;points=[[0,0.5],[1,0.5]];portConstraint=eastwest;rotatable=0;whiteSpace=wrap;html=1;" parent="mBfjgzDznsE84XW__5Sw-0" vertex="1">
          <mxGeometry x="46.43" y="100" width="57.14" height="35.29" as="geometry" />
        </mxCell>
        <mxCell id="mBfjgzDznsE84XW__5Sw-6" value="generateAES" style="text;strokeColor=none;fillColor=none;align=left;verticalAlign=middle;spacingLeft=4;spacingRight=4;overflow=hidden;points=[[0,0.5],[1,0.5]];portConstraint=eastwest;rotatable=0;whiteSpace=wrap;html=1;" parent="mBfjgzDznsE84XW__5Sw-0" vertex="1">
          <mxGeometry x="33.75" y="130" width="82.5" height="35.29" as="geometry" />
        </mxCell>
        <mxCell id="fQHdGgX8Pe3p8QN_3iXq-0" value="hashPass" style="text;strokeColor=none;fillColor=none;align=left;verticalAlign=middle;spacingLeft=4;spacingRight=4;overflow=hidden;points=[[0,0.5],[1,0.5]];portConstraint=eastwest;rotatable=0;whiteSpace=wrap;html=1;" vertex="1" parent="mBfjgzDznsE84XW__5Sw-0">
          <mxGeometry x="41.87" y="160" width="66.25" height="35.29" as="geometry" />
        </mxCell>
        <mxCell id="mBfjgzDznsE84XW__5Sw-7" value="" style="group" parent="WIyWlLk6GJQsqaUBKTNV-1" vertex="1" connectable="0">
          <mxGeometry x="270" y="510" width="180" height="280" as="geometry" />
        </mxCell>
        <mxCell id="mBfjgzDznsE84XW__5Sw-8" value="" style="ellipse;whiteSpace=wrap;html=1;" parent="mBfjgzDznsE84XW__5Sw-7" vertex="1">
          <mxGeometry width="180" height="280" as="geometry" />
        </mxCell>
        <mxCell id="mBfjgzDznsE84XW__5Sw-9" value="" style="endArrow=none;html=1;rounded=0;exitX=0.017;exitY=0.325;exitDx=0;exitDy=0;exitPerimeter=0;entryX=0.983;entryY=0.333;entryDx=0;entryDy=0;entryPerimeter=0;" parent="mBfjgzDznsE84XW__5Sw-7" source="mBfjgzDznsE84XW__5Sw-8" target="mBfjgzDznsE84XW__5Sw-8" edge="1">
          <mxGeometry width="50" height="50" relative="1" as="geometry">
            <mxPoint x="52.5" y="167.99999999999997" as="sourcePoint" />
            <mxPoint x="127.50000000000001" y="74.66666666666666" as="targetPoint" />
          </mxGeometry>
        </mxCell>
        <mxCell id="mBfjgzDznsE84XW__5Sw-10" value="&lt;b&gt;FamileService&lt;/b&gt;" style="text;html=1;align=center;verticalAlign=middle;whiteSpace=wrap;rounded=0;" parent="mBfjgzDznsE84XW__5Sw-7" vertex="1">
          <mxGeometry x="45" y="37.33333333333333" width="90" height="56" as="geometry" />
        </mxCell>
        <mxCell id="mBfjgzDznsE84XW__5Sw-11" value="getPerson" style="text;strokeColor=none;fillColor=none;align=left;verticalAlign=middle;spacingLeft=4;spacingRight=4;overflow=hidden;points=[[0,0.5],[1,0.5]];portConstraint=eastwest;rotatable=0;whiteSpace=wrap;html=1;" parent="mBfjgzDznsE84XW__5Sw-7" vertex="1">
          <mxGeometry x="57.74699999999999" y="93.32999999999998" width="64.503" height="35" as="geometry" />
        </mxCell>
        <mxCell id="mBfjgzDznsE84XW__5Sw-14" value="deletePerson" style="text;strokeColor=none;fillColor=none;align=left;verticalAlign=middle;spacingLeft=4;spacingRight=4;overflow=hidden;points=[[0,0.5],[1,0.5]];portConstraint=eastwest;rotatable=0;whiteSpace=wrap;html=1;" parent="mBfjgzDznsE84XW__5Sw-7" vertex="1">
          <mxGeometry x="51.57" y="122.50000000000001" width="79.6" height="35" as="geometry" />
        </mxCell>
        <mxCell id="mBfjgzDznsE84XW__5Sw-15" value="updatePerson" style="text;strokeColor=none;fillColor=none;align=left;verticalAlign=middle;spacingLeft=4;spacingRight=4;overflow=hidden;points=[[0,0.5],[1,0.5]];portConstraint=eastwest;rotatable=0;whiteSpace=wrap;html=1;" parent="mBfjgzDznsE84XW__5Sw-7" vertex="1">
          <mxGeometry x="46.6" y="150" width="89.53" height="35" as="geometry" />
        </mxCell>
        <mxCell id="mBfjgzDznsE84XW__5Sw-16" value="patchPerson" style="text;strokeColor=none;fillColor=none;align=left;verticalAlign=middle;spacingLeft=4;spacingRight=4;overflow=hidden;points=[[0,0.5],[1,0.5]];portConstraint=eastwest;rotatable=0;whiteSpace=wrap;html=1;" parent="mBfjgzDznsE84XW__5Sw-7" vertex="1">
          <mxGeometry x="49.89000000000001" y="180" width="82.95" height="35" as="geometry" />
        </mxCell>
        <mxCell id="mBfjgzDznsE84XW__5Sw-17" value="searchPerson" style="text;strokeColor=none;fillColor=none;align=left;verticalAlign=middle;spacingLeft=4;spacingRight=4;overflow=hidden;points=[[0,0.5],[1,0.5]];portConstraint=eastwest;rotatable=0;whiteSpace=wrap;html=1;" parent="mBfjgzDznsE84XW__5Sw-7" vertex="1">
          <mxGeometry x="50.943000000000005" y="210" width="80.847" height="35" as="geometry" />
        </mxCell>
        <mxCell id="mBfjgzDznsE84XW__5Sw-34" style="edgeStyle=orthogonalEdgeStyle;rounded=0;orthogonalLoop=1;jettySize=auto;html=1;exitX=0.5;exitY=1;exitDx=0;exitDy=0;" parent="mBfjgzDznsE84XW__5Sw-7" source="mBfjgzDznsE84XW__5Sw-8" target="mBfjgzDznsE84XW__5Sw-8" edge="1">
          <mxGeometry relative="1" as="geometry" />
        </mxCell>
        <mxCell id="mBfjgzDznsE84XW__5Sw-22" value="" style="group" parent="WIyWlLk6GJQsqaUBKTNV-1" vertex="1" connectable="0">
          <mxGeometry x="285" y="240" width="150" height="200" as="geometry" />
        </mxCell>
        <mxCell id="mBfjgzDznsE84XW__5Sw-23" value="" style="ellipse;whiteSpace=wrap;html=1;" parent="mBfjgzDznsE84XW__5Sw-22" vertex="1">
          <mxGeometry width="150" height="200" as="geometry" />
        </mxCell>
        <mxCell id="mBfjgzDznsE84XW__5Sw-24" value="" style="endArrow=none;html=1;rounded=0;exitX=0.017;exitY=0.325;exitDx=0;exitDy=0;exitPerimeter=0;entryX=0.983;entryY=0.333;entryDx=0;entryDy=0;entryPerimeter=0;" parent="mBfjgzDznsE84XW__5Sw-22" source="mBfjgzDznsE84XW__5Sw-23" target="mBfjgzDznsE84XW__5Sw-23" edge="1">
          <mxGeometry width="50" height="50" relative="1" as="geometry">
            <mxPoint x="43.74999999999999" y="120.00000000000001" as="sourcePoint" />
            <mxPoint x="106.24999999999999" y="53.33333333333333" as="targetPoint" />
          </mxGeometry>
        </mxCell>
        <mxCell id="mBfjgzDznsE84XW__5Sw-25" value="&lt;b&gt;AuthService&lt;/b&gt;" style="text;html=1;align=center;verticalAlign=middle;whiteSpace=wrap;rounded=0;" parent="mBfjgzDznsE84XW__5Sw-22" vertex="1">
          <mxGeometry x="37.5" y="26.666666666666664" width="75" height="40" as="geometry" />
        </mxCell>
        <mxCell id="mBfjgzDznsE84XW__5Sw-27" value="hashPass" style="text;strokeColor=none;fillColor=none;align=left;verticalAlign=middle;spacingLeft=4;spacingRight=4;overflow=hidden;points=[[0,0.5],[1,0.5]];portConstraint=eastwest;rotatable=0;whiteSpace=wrap;html=1;" parent="mBfjgzDznsE84XW__5Sw-22" vertex="1">
          <mxGeometry x="43.75" y="66.67" width="62.5" height="41.21" as="geometry" />
        </mxCell>
        <mxCell id="mBfjgzDznsE84XW__5Sw-31" value="login" style="text;strokeColor=none;fillColor=none;align=left;verticalAlign=middle;spacingLeft=4;spacingRight=4;overflow=hidden;points=[[0,0.5],[1,0.5]];portConstraint=eastwest;rotatable=0;whiteSpace=wrap;html=1;" parent="mBfjgzDznsE84XW__5Sw-22" vertex="1">
          <mxGeometry x="54.38" y="100" width="41.25" height="41.21" as="geometry" />
        </mxCell>
        <mxCell id="mBfjgzDznsE84XW__5Sw-32" value="&lt;span style=&quot;color: rgb(0, 0, 0); font-family: Helvetica; font-size: 12px; font-style: normal; font-variant-ligatures: normal; font-variant-caps: normal; font-weight: 400; letter-spacing: normal; orphans: 2; text-align: left; text-indent: 0px; text-transform: none; widows: 2; word-spacing: 0px; -webkit-text-stroke-width: 0px; white-space: normal; background-color: rgb(251, 251, 251); text-decoration-thickness: initial; text-decoration-style: initial; text-decoration-color: initial; display: inline !important; float: none;&quot;&gt;createPerson&lt;/span&gt;" style="text;whiteSpace=wrap;html=1;" parent="mBfjgzDznsE84XW__5Sw-22" vertex="1">
          <mxGeometry x="37.510000000000005" y="141.21" width="74.99" height="40" as="geometry" />
        </mxCell>
        <mxCell id="mBfjgzDznsE84XW__5Sw-40" style="edgeStyle=orthogonalEdgeStyle;rounded=0;orthogonalLoop=1;jettySize=auto;html=1;entryX=0;entryY=0.5;entryDx=0;entryDy=0;" parent="WIyWlLk6GJQsqaUBKTNV-1" source="mBfjgzDznsE84XW__5Sw-8" target="mBfjgzDznsE84XW__5Sw-1" edge="1">
          <mxGeometry relative="1" as="geometry" />
        </mxCell>
        <mxCell id="mBfjgzDznsE84XW__5Sw-43" style="edgeStyle=orthogonalEdgeStyle;rounded=0;orthogonalLoop=1;jettySize=auto;html=1;entryX=1;entryY=0.5;entryDx=0;entryDy=0;" parent="WIyWlLk6GJQsqaUBKTNV-1" source="mBfjgzDznsE84XW__5Sw-1" target="mBfjgzDznsE84XW__5Sw-8" edge="1">
          <mxGeometry relative="1" as="geometry" />
        </mxCell>
        <mxCell id="mBfjgzDznsE84XW__5Sw-44" value="" style="endArrow=classic;html=1;rounded=0;entryX=0.5;entryY=0;entryDx=0;entryDy=0;exitX=0.5;exitY=1;exitDx=0;exitDy=0;" parent="WIyWlLk6GJQsqaUBKTNV-1" source="mBfjgzDznsE84XW__5Sw-23" target="mBfjgzDznsE84XW__5Sw-8" edge="1">
          <mxGeometry width="50" height="50" relative="1" as="geometry">
            <mxPoint x="670" y="430" as="sourcePoint" />
            <mxPoint x="720" y="380" as="targetPoint" />
          </mxGeometry>
        </mxCell>
      </root>
    </mxGraphModel>
  </diagram>
</mxfile>
